<?xml version="1.0" encoding="UTF-8"?>
<svg id="Capa_2" data-name="Capa 2" xmlns="http://www.w3.org/2000/svg" viewBox="0 0 14 20">
  <defs>
    <style>
      .cls-1 {
        fill: #fff;
      }

      .cls-2 {
        fill: #75286e;
      }

      .cls-3 {
        fill: #9b328b;
      }
    </style>
  </defs>
  <g id="Capa_1-2" data-name="Capa 1">
    <g>
      <path class="cls-3" d="M7,19.81C6.17,18.87,.13,11.81,.13,7,.13,3.21,3.21,.12,7,.12s6.88,3.08,6.88,6.88c0,4.81-6.05,11.87-6.88,12.81Z"/>
      <path class="cls-2" d="M7,.25c3.72,0,6.75,3.03,6.75,6.75,0,4.62-5.65,11.35-6.75,12.62C5.9,18.35,.25,11.62,.25,7,.25,3.28,3.28,.25,7,.25m0-.25C3.13,0,0,3.13,0,7c0,5.25,7,13,7,13,0,0,7-7.75,7-13C14,3.13,10.87,0,7,0h0Z"/>
    </g>
    <path class="cls-1" d="M9.7,2.58l-1.93,1.74v4.24l1.93-1.74V2.58m-4.82,1.16c-.75,0-1.56,.15-2.12,.58v5.65c0,.1,.1,.19,.19,.19,.04,0,.06-.03,.1-.03,.52-.25,1.27-.42,1.83-.42,.75,0,1.56,.15,2.12,.58,.52-.33,1.47-.58,2.12-.58s1.29,.12,1.83,.41c.04,.02,.06,.01,.1,.01,.1,0,.19-.1,.19-.19V4.32c-.23-.17-.48-.29-.77-.39v5.21c-.42-.13-.89-.19-1.35-.19-.66,0-1.6,.25-2.12,.58V4.32c-.56-.42-1.37-.58-2.12-.58Z"/>
  </g>
</svg>