<?xml version="1.0" encoding="UTF-8"?>
<svg id="Capa_2" data-name="Capa 2" xmlns="http://www.w3.org/2000/svg" viewBox="0 0 14 20">
  <defs>
    <style>
      .cls-1 {
        fill: #f48a4c;
      }

      .cls-2 {
        fill: #fff;
      }

      .cls-3 {
        fill: #ce7549;
      }
    </style>
  </defs>
  <g id="Capa_1-2" data-name="Capa 1">
    <g>
      <path class="cls-1" d="M7,19.81C6.17,18.87,.13,11.81,.13,7,.13,3.21,3.21,.12,7,.12s6.88,3.08,6.88,6.88c0,4.81-6.05,11.87-6.88,12.81Z"/>
      <path class="cls-3" d="M7,.25c3.72,0,6.75,3.03,6.75,6.75,0,4.62-5.65,11.35-6.75,12.62C5.9,18.35,.25,11.62,.25,7,.25,3.28,3.28,.25,7,.25m0-.25C3.13,0,0,3.13,0,7c0,5.25,7,13,7,13,0,0,7-7.75,7-13C14,3.13,10.87,0,7,0h0Z"/>
    </g>
    <path class="cls-2" d="M8.52,8.83l-1.52-.98-1.52,.98,.46-1.75-1.4-1.14,1.8-.11,.65-1.67,.65,1.67,1.8,.11-1.4,1.14m2.33-.29c0-.47,.38-.85,.85-.85v-1.7c0-.47-.38-.85-.85-.85H3.61c-.47,0-.85,.38-.85,.85v1.7c.47,0,.85,.38,.85,.85s-.38,.85-.85,.85v1.7c0,.47,.38,.85,.85,.85h6.79c.47,0,.85-.38,.85-.85v-1.7c-.47,0-.85-.38-.85-.85Z"/>
  </g>
</svg>