<?xml version="1.0" encoding="UTF-8"?>
<svg id="Capa_2" data-name="Capa 2" xmlns="http://www.w3.org/2000/svg" viewBox="0 0 14 20">
  <defs>
    <style>
      .cls-1 {
        fill: #fff;
      }

      .cls-2 {
        fill: #21aa68;
      }

      .cls-3 {
        fill: #24ce81;
      }
    </style>
  </defs>
  <g id="Capa_1-2" data-name="Capa 1">
    <g>
      <path class="cls-3" d="M7,19.81C6.17,18.87,.13,11.81,.13,7,.13,3.21,3.21,.12,7,.12s6.88,3.08,6.88,6.88c0,4.81-6.05,11.87-6.88,12.81Z"/>
      <path class="cls-2" d="M7,.25c3.72,0,6.75,3.03,6.75,6.75,0,4.62-5.65,11.35-6.75,12.62C5.9,18.35,.25,11.62,.25,7,.25,3.28,3.28,.25,7,.25m0-.25C3.13,0,0,3.13,0,7c0,5.25,7,13,7,13,0,0,7-7.75,7-13C14,3.13,10.87,0,7,0h0Z"/>
    </g>
    <path class="cls-1" d="M8.15,8.09c-.15-.22-.27-.43-.38-.62-.48-.82-.86-1.37-2-1.55v-1.89c0-.79-.64-1.43-1.43-1.43s-1.43,.64-1.43,1.43v6.73h.82v-.82h1.22v.82h.82V6.74c.72,.14,.93,.5,1.29,1.13,.12,.21,.25,.43,.41,.67,.91,1.37,1.84,2.22,3.6,2.22v-.82c-1.42,0-2.12-.65-2.93-1.86M4.35,3.41c.34,0,.61,.27,.61,.61v1.84h-1.22v-1.84c0-.34,.27-.61,.61-.61m-.61,5.71v-.82h1.22v.82h-1.22m1.22-1.63h-1.22v-.82h1.22v.82Z"/>
  </g>
</svg>