<?xml version="1.0" encoding="UTF-8"?>
<svg id="Capa_2" data-name="Capa 2" xmlns="http://www.w3.org/2000/svg" viewBox="0 0 14 20">
  <defs>
    <style>
      .cls-1 {
        fill: #f7d979;
      }

      .cls-2 {
        fill: #fff;
      }

      .cls-3 {
        fill: #ddbe78;
      }
    </style>
  </defs>
  <g id="Capa_1-2" data-name="Capa 1">
    <g>
      <path class="cls-1" d="M7,19.81C6.17,18.87,.13,11.81,.13,7,.13,3.21,3.21,.12,7,.12s6.88,3.08,6.88,6.88c0,4.81-6.05,11.87-6.88,12.81Z"/>
      <path class="cls-3" d="M7,.25c3.72,0,6.75,3.03,6.75,6.75,0,4.62-5.65,11.35-6.75,12.62C5.9,18.35,.25,11.62,.25,7,.25,3.28,3.28,.25,7,.25m0-.25C3.13,0,0,3.13,0,7c0,5.25,7,13,7,13,0,0,7-7.75,7-13C14,3.13,10.87,0,7,0h0Z"/>
    </g>
    <path class="cls-2" d="M6.61,5.83h-.78V3.09h-.78v2.74h-.78V3.09h-.78v2.74c0,.83,.65,1.5,1.47,1.55v3.53h.98v-3.53c.82-.05,1.47-.72,1.47-1.55V3.09h-.78v2.74m1.96-1.17v3.13h.98v3.13h.98V3.09c-1.08,0-1.96,.88-1.96,1.56Z"/>
  </g>
</svg>